PathFileType	4	(X/Y/Z)	D:\TRACE\spot_10-12-23\spot_body_motion_2_2-platform.trc
DataRate	CameraRate	NumFrames	NumMarkers	Units	OrigDataRate	OrigDataStartFrame	OrigNumFrames
100.00	100.00	      64	5	mm	100.00	1	      7000
Frame#	Time	Left_Front			Right_Front			Left_Aft			Right_Aft			Post			
		X1	Y1	Z1	X2	Y2	Z2	X3	Y3	Z3	X4	Y4	Z4	X5	Y5	Z5	

1	0.000	-780.69226	6.41160	-641.54559	791.62378	11.04776	-634.87140	-697.82251	5.61797	496.37976	719.32336	9.97812	582.39673	1.83998	743.92932	-959.53076	
2	0.010	-780.57501	6.25712	-641.51831	791.67639	11.01580	-634.83545	-697.86426	5.64013	496.33612	719.32556	9.98140	582.36804	1.75856	743.91058	-959.60602	
3	0.020	-780.62219	6.30063	-641.51855	791.61896	11.04165	-634.87244	-697.83405	5.63729	496.36169	719.32721	9.99390	582.42371	1.78866	743.92700	-959.58972	
4	0.030	-780.78003	6.44040	-641.46082	791.62836	11.01779	-634.87921	-697.84363	5.64395	496.35852	719.33093	9.96951	582.38159	1.82372	743.89874	-959.55597	
5	0.040	-780.76202	6.41785	-641.50421	791.59729	11.02707	-634.91467	-697.83105	5.63629	496.32993	719.33954	9.97085	582.39197	1.78847	743.90527	-959.54584	
6	0.050	-780.69250	6.36239	-641.53265	791.73413	11.06096	-634.81165	-697.84741	5.63999	496.32700	719.32501	9.97096	582.37964	1.78578	743.92358	-959.52740	
7	0.060	-780.72577	6.41567	-641.49823	791.59033	11.03677	-634.92542	-697.83777	5.60277	496.36554	719.29132	9.99631	582.38739	1.85749	743.89618	-959.53900	
8	0.070	-780.74524	6.45984	-641.48505	791.68860	11.04030	-634.84821	-697.79639	5.64542	496.36600	719.34564	9.97891	582.39868	1.85084	743.89142	-959.52832	
9	0.080	-780.73297	6.42555	-641.50201	791.64716	11.06258	-634.86969	-697.82428	5.66956	496.35052	719.35120	9.99942	582.39886	1.86007	743.91760	-959.50659	
10	0.090	-780.71423	6.40880	-641.48462	791.70935	11.04328	-634.85785	-697.81024	5.61855	496.31622	719.34369	9.98036	582.39886	1.77601	743.92664	-959.56897	
11	0.100	-780.69611	6.38756	-641.49695	791.58624	11.06892	-634.90033	-697.84161	5.61758	496.35175	719.31519	9.97210	582.38159	1.79894	743.94812	-959.48413	
12	0.110	-780.73230	6.44752	-641.49823	791.66833	11.05861	-634.89136	-697.82202	5.61682	496.34219	719.34546	9.99270	582.43512	1.84555	743.91254	-959.53180	
13	0.120	-780.63434	6.32113	-641.52814	791.48102	11.06090	-635.01654	-697.82690	5.62778	496.35001	719.34320	10.01522	582.40717	1.78534	743.92236	-959.54437	
14	0.130	-780.66290	6.37010	-641.49536	791.59460	11.01657	-634.94507	-697.84045	5.63936	496.33566	719.36151	10.02365	582.41180	1.81694	743.91809	-959.56238	
15	0.140	-780.69690	6.35096	-641.46283	791.61255	11.03918	-634.87073	-697.83478	5.61749	496.35394	719.36047	9.98089	582.39917	1.81577	743.90356	-959.58997	
16	0.150	-780.67938	6.32136	-641.48755	791.66016	11.06394	-634.84064	-697.80811	5.62585	496.37183	719.35382	9.96943	582.41589	1.78018	743.93750	-959.55090	
17	0.160	-780.72363	6.41763	-641.49695	791.65851	11.04197	-634.88306	-697.85052	5.62820	496.36990	719.34534	10.00529	582.40546	1.82046	743.89423	-959.53992	
18	0.170	-780.67432	6.37484	-641.53156	791.66876	11.03417	-634.87201	-697.86530	5.61895	496.33435	719.34314	10.02160	582.42725	1.83066	743.91425	-959.54889	
19	0.180	-780.68744	6.38059	-641.48749	791.62677	11.06200	-634.85419	-697.83435	5.63113	496.32419	719.32391	9.99365	582.41656	1.80434	743.92944	-959.53851	
20	0.190	-780.66504	6.38787	-641.51337	791.64191	11.05113	-634.89417	-697.83685	5.62689	496.32596	719.35089	10.00840	582.42505	1.79052	743.90729	-959.51068	
21	0.200	-780.70862	6.38708	-641.49390	791.61841	11.02046	-634.91510	-697.84650	5.65818	496.37347	719.32898	9.96818	582.40607	1.78821	743.91693	-959.56506	
22	0.210	-780.67902	6.35065	-641.51416	791.64459	11.04472	-634.88361	-697.85406	5.65840	496.34442	719.35529	10.00203	582.41510	1.81830	743.90546	-959.53351	
23	0.220	-780.71124	6.41193	-641.49835	791.63733	11.00738	-634.91205	-697.84064	5.62140	496.36090	719.36041	9.99791	582.42432	1.83300	743.90790	-959.54474	
24	0.230	-780.68817	6.40179	-641.51904	791.62683	11.04686	-634.91125	-697.84088	5.61594	496.34787	719.34338	10.01224	582.41235	1.83627	743.91418	-959.50354	
25	0.240	-780.69257	6.42331	-641.47809	791.62537	11.06682	-634.86383	-697.83221	5.62673	496.34033	719.34619	9.99393	582.41522	1.83188	743.93835	-959.51892	
26	0.250	-780.69177	6.35950	-641.50952	791.61237	11.02629	-634.90302	-697.82483	5.64733	496.35605	719.31671	9.98728	582.41577	1.81211	743.91174	-959.52844	
27	0.260	-780.72028	6.40563	-641.47858	791.47400	11.05758	-634.99487	-697.82471	5.63639	496.35471	719.33234	9.98733	582.41516	1.82882	743.94073	-959.56805	
28	0.270	-780.68378	6.39908	-641.47333	791.62921	11.03170	-634.91565	-697.83954	5.61961	496.33527	719.34070	9.99236	582.42450	1.79585	743.92346	-959.56616	
29	0.280	-780.70227	6.39982	-641.51086	791.59540	11.06141	-634.89990	-697.87018	5.66273	496.35272	719.33118	9.99665	582.43799	1.83722	743.92120	-959.54181	
30	0.290	-780.68640	6.36942	-641.50372	791.61206	11.05110	-634.90973	-697.80127	5.65434	496.35507	719.35486	9.99076	582.42090	1.83074	743.92285	-959.58887	
31	0.300	-780.70245	6.37179	-641.50110	791.67700	11.07055	-634.87793	-697.79193	5.61339	496.36362	719.34320	9.99703	582.43329	1.85849	743.93036	-959.54572	
32	0.310	-780.66571	6.35850	-641.49335	791.63702	11.06207	-634.87384	-697.86115	5.66477	496.32178	719.32074	9.98389	582.43597	1.82335	743.90997	-959.55817	
33	0.320	-780.60596	6.30981	-641.50604	791.57904	11.06053	-634.90125	-697.84155	5.63848	496.36023	719.35724	9.97395	582.44885	1.82460	743.92065	-959.52661	
34	0.330	-780.71997	6.40022	-641.50781	791.69702	11.01365	-634.88489	-697.84375	5.63592	496.33752	719.33258	10.00247	582.42572	1.82618	743.91736	-959.56824	
35	0.340	-780.67688	6.38483	-641.52655	791.51508	11.06422	-635.00085	-697.84045	5.62164	496.38312	719.33868	10.01418	582.43280	1.83232	743.92712	-959.54913	
36	0.350	-780.62323	6.34991	-641.51953	791.49756	11.05995	-635.01367	-697.84668	5.66430	496.33511	719.36743	9.99999	582.42096	1.82983	743.91699	-959.53339	
37	0.360	-780.67084	6.35812	-641.49713	791.63019	11.06877	-634.90057	-697.82776	5.64008	496.37784	719.35223	10.01525	582.41730	1.83829	743.89471	-959.52094	
38	0.370	-780.64191	6.33349	-641.49493	791.63916	11.05055	-634.82465	-697.80225	5.60618	496.36475	719.35052	9.99901	582.43976	1.81961	743.91327	-959.54260	
39	0.380	-780.69556	6.37863	-641.48395	791.44928	11.06927	-635.04272	-697.85553	5.61177	496.37863	719.35114	10.00323	582.44775	1.83527	743.90784	-959.47662	
40	0.390	-780.66388	6.38388	-641.54065	791.63916	11.05853	-634.89349	-697.87372	5.66784	496.36557	719.35272	9.98601	582.41602	1.80461	743.93640	-959.46704	
41	0.400	-780.71204	6.43221	-641.51337	791.60016	11.06816	-634.91608	-697.83118	5.66215	496.35022	719.37329	10.02997	582.44153	1.83018	743.92438	-959.53394	
42	0.410	-780.69135	6.39253	-641.50653	791.67511	11.02674	-634.86542	-697.85693	5.68070	496.33377	719.33948	9.99646	582.46350	1.82078	743.92963	-959.59235	
43	0.420	-780.74805	6.43498	-641.47876	791.65088	11.03182	-634.89203	-697.84174	5.65799	496.34354	719.35590	9.99813	582.44177	1.82816	743.92670	-959.57166	
44	0.430	-780.65894	6.32786	-641.50818	791.63019	11.02995	-634.90430	-697.86285	5.63216	496.33386	719.33777	10.00876	582.45508	1.82492	743.89343	-959.53247	
45	0.440	-780.69580	6.36303	-641.50555	791.66711	11.04941	-634.83221	-697.81793	5.61286	496.36444	719.33405	10.01257	582.41846	1.80884	743.89160	-959.56580	
46	0.450	-780.68921	6.38744	-641.53149	791.66119	11.07130	-634.87994	-697.80786	5.62925	496.34637	719.35303	10.01434	582.44104	1.80509	743.91626	-959.53308	
47	0.460	-780.69556	6.43041	-641.52271	791.64526	11.06056	-634.92725	-697.85742	5.65007	496.34860	719.39526	10.00956	582.45197	1.85470	743.93427	-959.55737	
48	0.470	-780.65021	6.36574	-641.54517	791.61218	11.05917	-634.91766	-697.83667	5.65056	496.34814	719.34473	10.04347	582.43823	1.84110	743.93585	-959.54364	
49	0.480	-780.75073	6.43032	-641.49127	791.59839	11.04371	-634.89941	-697.80927	5.66114	496.36511	719.34998	9.99648	582.42407	1.82223	743.92096	-959.53619	
50	0.490	-780.70905	6.36433	-641.47797	791.58191	11.05773	-634.90833	-697.82263	5.61990	496.37125	719.33649	9.99922	582.44208	1.84614	743.93182	-959.52362	
51	0.500	-780.66321	6.37487	-641.51324	791.60736	11.06373	-634.88879	-697.84131	5.63512	496.36902	719.34027	10.00106	582.42212	1.82739	743.93372	-959.54663	
52	0.510	-780.68854	6.36381	-641.49353	791.66559	11.06344	-634.81323	-697.81940	5.64932	496.37708	719.34241	9.99680	582.44940	1.82562	743.91931	-959.52917	
53	0.520	-780.68958	6.37798	-641.50452	791.63391	11.09546	-634.87848	-697.80817	5.61530	496.36234	719.35107	10.00359	582.42072	1.80892	743.95282	-959.52820	
54	0.530	-780.69495	6.33984	-641.50433	791.62616	11.03284	-634.90900	-697.82928	5.61941	496.37839	719.32947	9.99562	582.44836	1.81262	743.94379	-959.51929	
55	0.540	-780.70978	6.39060	-641.49957	791.64844	11.04482	-634.85522	-697.84979	5.64655	496.36288	719.34613	9.99339	582.41125	1.83669	743.89392	-959.55170	
56	0.550	-780.70245	6.40630	-641.49750	791.62048	11.07721	-634.89935	-697.85016	5.64970	496.37442	719.35571	10.01414	582.43481	1.83574	743.92322	-959.49854	
57	0.560	-780.65936	6.41907	-641.54297	791.61237	11.08757	-634.90436	-697.83984	5.64188	496.31351	719.36786	10.01991	582.46301	1.79813	743.91510	-959.54858	
58	0.570	-780.71881	6.41706	-641.47913	791.63953	11.06035	-634.87830	-697.80896	5.64469	496.37631	719.37677	10.00909	582.44019	1.82132	743.92078	-959.52344	
59	0.580	-780.65125	6.37577	-641.50555	791.66998	11.04746	-634.88947	-697.83234	5.63353	496.36505	719.34924	10.01383	582.44592	1.80972	743.91089	-959.51965	
60	0.590	-780.70306	6.37467	-641.55792	791.64648	11.05862	-634.90283	-697.85406	5.60723	496.37518	719.34448	9.99850	582.42932	1.77505	743.91467	-959.52100	
61	0.600	-780.69971	6.39562	-641.48309	791.63452	11.04121	-634.83472	-697.83710	5.62726	496.33997	719.35028	10.01176	582.44781	1.81082	743.92780	-959.57513	
62	0.610	-780.67725	6.35364	-641.47888	791.68304	11.04441	-634.87842	-697.83392	5.66565	496.35260	719.36865	10.01635	582.42816	1.83950	743.92529	-959.53888	
63	0.620	-780.74518	6.42908	-641.47992	791.66107	11.03213	-634.88361	-697.87250	5.64869	496.35876	719.32416	9.97364	582.44196	1.83769	743.93292	-959.54358	
64	0.630	-780.72772	6.43581	-641.47028	791.60779	11.04731	-634.93683	-697.82635	5.64859	496.33862	719.34509	9.98220	582.43536	1.82504	743.92419	-959.55029	
